<svg xmlns="http://www.w3.org/2000/svg" width="473" height="748">
    <path fill="#007cc2" fill-rule="evenodd" d="M176.5 418.208c-3.984 2.285-4.435 3.939-4.468 16.375-.018 6.646-.337 12.388-.709 12.761-.373.372-4.812-3.378-9.865-8.334-5.054-4.955-9.729-9.01-10.389-9.01-2.03 0-4.969 1.945-6.081 4.023-1.611 3.009-.092 5.111 14.132 19.56L172 466.666v13.167c0 7.242-.323 13.167-.717 13.167-.395 0-9.353-8.594-19.906-19.097-16.802-16.722-19.481-19.011-21.533-18.399-2.914.868-4.844 3.236-4.844 5.943 0 2.462 2.441 5.165 27.635 30.61L172 511.614v23.634c0 12.999-.344 23.847-.765 24.107-.421.26-5.933-2.484-12.25-6.097a4311.717 4311.717 0 0 0-20.138-11.445c-4.759-2.681-9.166-5.493-9.794-6.249-.628-.756-4.744-14.498-9.148-30.538-9.496-34.589-9.201-33.748-12.344-35.18-3.449-1.571-7.561 1.108-7.562 4.927 0 1.5 2.966 13.448 6.592 26.552 3.625 13.104 6.349 24.069 6.052 24.365-.296.297-5.625-2.377-11.841-5.942L89.5 513.267l-5.19-18.209c-2.855-10.015-5.723-18.85-6.373-19.634-1.733-2.088-6.345-1.736-8.504.65-1.966 2.172-1.755 3.455 4.235 25.821.621 2.32.441 2.279-5.763-1.321-12.661-7.347-16.245-8.7-19.78-7.468-3.216 1.121-6.125 5.216-6.125 8.622 0 3.363 3.048 6.235 12.557 11.831 5.194 3.057 9.443 5.871 9.443 6.254 0 .383-5.062 1.993-11.25 3.579-6.187 1.585-12.037 3.565-13 4.4-2.619 2.272-2.24 6.841.727 8.785 2.348 1.538 3.33 1.401 18.75-2.632 8.95-2.34 17.502-4.46 19.004-4.711 2.058-.343 5.609 1.216 14.407 6.325 10.022 5.82 11.371 6.894 9.515 7.58-1.188.44-11.047 3.087-21.907 5.882-24.508 6.308-26.33 6.868-28.496 8.76-2.216 1.936-2.248 5.578-.069 7.757 2.26 2.26 6.985 1.64 25.819-3.392a9946.84 9946.84 0 0 1 28.5-7.561l13.5-3.554L132 558.2c22.075 12.66 29 16.861 28.991 17.589-.005.391-9.275 6.067-20.6 12.612l-20.592 11.902-10.149-2.534c-5.583-1.393-20.148-5.122-32.368-8.287-21.317-5.521-22.321-5.687-24.75-4.095-3.329 2.182-3.479 6.968-.282 8.99 1.765 1.116 31.28 9.225 48.044 13.199 1.536.365 2.633 1.143 2.437 1.73-.196.588-5.278 3.903-11.293 7.367L80.5 622.972l-17.37-4.486C53.576 616.019 44.759 614 43.535 614c-4.448 0-7.498 7.126-4.216 9.849.725.602 6.361 2.393 12.524 3.98 10.48 2.699 13.091 3.675 12.074 4.515-.229.189-4.715 2.851-9.968 5.915C44.483 643.782 42 646.455 42 651.124c0 3.006 5.323 7.876 8.609 7.876 1.52 0 7.211-2.518 12.648-5.596 5.436-3.078 10.114-5.366 10.395-5.085.282.281-.913 5.542-2.655 11.691-1.823 6.438-2.913 12.187-2.57 13.556 1.15 4.581 8.331 5.736 10.4 1.672.486-.956 3.027-9.659 5.645-19.341l4.761-17.603 11.634-6.567c6.398-3.612 11.765-6.207 11.927-5.767.161.441-2.502 10.868-5.918 23.171-3.416 12.303-6.413 23.852-6.658 25.664-.769 5.666 4.702 9.274 9.03 5.955.901-.691 3.166-6.838 5.067-13.75 1.891-6.875 5.832-21.177 8.757-31.783l5.319-19.283 20-11.612c11-6.386 20.812-11.824 21.804-12.083 1.703-.446 1.805.897 1.805 23.83v24.301l-16.841 17.065c-25.873 26.218-30.125 30.89-30.142 33.124-.026 3.193 2.355 5.691 5.426 5.691 2.283 0 6.169-3.378 21.469-18.662 10.274-10.264 18.998-18.345 19.384-17.958.387.387.688 6.366.668 13.287l-.035 12.583-12.433 12.737c-6.838 7.005-13.19 13.893-14.117 15.307-1.598 2.44-1.582 2.708.319 5.263 3.701 4.976 5.711 4.242 15.746-5.751 5.037-5.016 9.473-8.806 9.857-8.422.385.385.713 5.912.731 12.283.033 12.046.522 13.72 4.652 15.92 3.427 1.825 6.794 1.376 9.67-1.289 2.59-2.401 2.646-2.716 2.646-15 0-6.902.31-12.548.688-12.548.378 0 4.818 4.05 9.865 9 5.048 4.95 9.876 9 10.731 9 5.011 0 7.632-4.371 5.282-8.806-.785-1.482-7.084-8.312-13.997-15.179L189 685.53v-13.265c0-7.296.323-13.265.717-13.265.395 0 9.353 8.594 19.906 19.097 16.869 16.788 19.473 19.01 21.533 18.378 3.698-1.136 4.844-2.493 4.844-5.741 0-2.604-3.246-6.294-23.5-26.713L189 640.329v-24.164c0-13.291.338-24.154.75-24.141.412.013 9.975 5.332 21.25 11.82l20.5 11.797 7.666 27.43c4.216 15.086 8.151 29.307 8.745 31.603.594 2.295 1.789 4.883 2.656 5.75 3.329 3.329 9.417.916 9.447-3.745.008-1.199-2.978-13.105-6.637-26.459-3.658-13.354-6.421-24.509-6.14-24.79.364-.364 21.854 11.489 23.427 12.921.09.082 2.291 8.024 4.89 17.649 5.21 19.292 7.138 22.796 11.885 21.605 4.962-1.246 5.261-4.345 1.658-17.217-1.783-6.368-3.005-11.813-2.717-12.102.289-.288 5.383 2.249 11.322 5.638 8.615 4.917 11.391 6.05 13.732 5.607 4.007-.758 6.406-3.161 7.159-7.173.938-5-1.306-7.541-12.346-13.983-5.361-3.128-9.935-5.842-10.164-6.031-1.017-.84 1.594-1.816 12.074-4.515 6.163-1.587 11.799-3.378 12.524-3.98 1.808-1.5 1.66-6.365-.252-8.278-2.059-2.058-4.931-1.982-13.697.364-3.978 1.064-11.647 3.109-17.043 4.543l-9.811 2.608-11.439-6.643C262.147 612.79 257 609.431 257 608.98c0-.452 1.462-1.132 3.25-1.511s9.1-2.211 16.25-4.069c33.402-8.684 33.5-8.723 33.5-13.4 0-2.057-.769-3.457-2.532-4.613-2.429-1.592-3.433-1.426-24.75 4.097a9029.996 9029.996 0 0 1-32.289 8.311l-10.07 2.555-20.662-11.925c-11.363-6.559-20.669-12.226-20.679-12.593-.021-.768.472-1.068 24.032-14.646l17.55-10.113 13.45 3.505c7.397 1.929 21.133 5.512 30.524 7.964 20.013 5.226 23.006 5.473 24.574 2.032 1.593-3.496.345-7.136-2.885-8.414-1.52-.601-11.763-3.383-22.763-6.183-23.089-5.875-26.506-6.883-26.483-7.805.03-1.167 21.635-13.172 23.707-13.172 1.088 0 3.282.415 4.877.923 1.594.507 9.321 2.578 17.17 4.601 13.489 3.476 14.408 3.589 16.75 2.054 2.97-1.946 3.345-6.488.729-8.846-.962-.867-6.475-2.769-12.25-4.225-5.775-1.456-10.875-3.013-11.334-3.461-.458-.448 4.007-3.678 9.923-7.18 8.156-4.827 10.981-7.041 11.682-9.159 1.894-5.723-2.055-11.707-7.725-11.707-1.919 0-7.014 2.238-13.533 5.945-5.751 3.27-10.615 5.787-10.809 5.593-.194-.194 1.031-5.337 2.722-11.429 1.691-6.092 3.074-11.914 3.074-12.938 0-4.21-7.271-6.959-9.931-3.755-.646.779-3.514 9.618-6.372 19.641l-5.197 18.224-11.302 6.474c-6.216 3.561-11.552 6.224-11.857 5.919-.306-.305 2.418-11.197 6.052-24.203 3.634-13.006 6.607-24.947 6.607-26.536 0-3.982-4.033-6.697-7.561-5.089-3.143 1.432-2.848.591-12.344 35.18-4.404 16.04-8.485 29.739-9.069 30.443C229.647 537.13 191.655 559 190.148 559c-.832 0-1.148-6.523-1.148-23.683v-23.683L212.5 488c20.722-20.84 23.5-24.008 23.5-26.794 0-4.069-3.557-6.725-7.115-5.313-1.312.521-10.48 9.083-20.375 19.027-9.894 9.944-18.331 18.08-18.75 18.08-.418 0-.76-5.926-.76-13.17v-13.17l13.355-13.58c7.346-7.469 13.644-14.4 13.997-15.402.352-1.003.125-2.803-.505-4-3.071-5.835-5.838-4.931-16.294 5.322-5.047 4.95-9.487 9-9.865 9-.378 0-.688-5.87-.688-13.045 0-12.518-.099-13.145-2.455-15.5-2.649-2.65-6.718-3.155-10.045-1.247"/>
    <path fill="#b30505" fill-rule="evenodd" d="M223.012 12.177c.006.727.684 3.798 1.506 6.823 12.226 44.991.067 89.775-38.217 140.758-13.542 18.033-27.223 33.878-59.789 69.242-9.37 10.175-20.654 22.55-25.077 27.5-58.105 65.035-83.779 110.533-93.105 165-2.131 12.44-2.428 47.047-.508 59 1.639 10.201 5.106 27.131 6.115 29.859.494 1.334 1.031-2.082 1.477-9.381 2.224-36.433 12.406-67.197 34.507-104.266 31.974-53.627 86.282-111.756 169.574-181.504 6.048-5.065 11.304-9.208 11.681-9.208.376 0 .273 1.436-.231 3.191-3.393 11.832-4.445 21.961-4.445 42.809 0 13.967.474 23.953 1.354 28.5 8.833 45.669 26.269 81.569 72.851 150 46.682 68.578 49.937 73.935 56.659 93.247 6.796 19.525 8.136 28.137 8.133 52.253-.002 17.17-.375 23.212-1.851 30-7.428 34.167-23.337 62.719-49.617 89.049-15.117 15.146-29.692 26.533-50.338 39.327-4.295 2.662-7.615 5.034-7.377 5.271.577.577 10.706-3.338 24.265-9.379 53.82-23.978 100.025-62.906 132.329-111.487 68.31-102.733 72.397-250.75 9.375-339.599-2.464-3.475-4.688-6.11-4.942-5.856-.254.254.677 4.672 2.068 9.818 4.001 14.797 5.592 26.141 5.574 39.737-.027 19.559-3.544 32.462-11.833 43.41-23.515 31.06-67.863 21.827-81.188-16.902-3.603-10.473-4.269-21.783-3.005-51.053 3.852-89.164 1.846-124.543-9.383-165.489-13.055-47.603-39.277-84.849-77.957-110.727-11.185-7.483-18.619-11.456-18.605-9.943"/>
</svg>
